<?xml version="1.0" encoding="UTF-8"?>
<svg xmlns="http://www.w3.org/2000/svg" xmlns:xlink="http://www.w3.org/1999/xlink" width="24px" height="24px" viewBox="0 0 24 24" version="1.1">
<g id="surface1">
<path style="fill:none;stroke-width:2;stroke-linecap:round;stroke-linejoin:round;stroke:white;stroke-opacity:1;stroke-miterlimit:4;" d="M 12 14 L 12 8.5 C 12 7.671875 12.671875 7 13.5 7 C 14.328125 7 15 7.671875 15 8.5 L 15 14 C 15 15.65625 13.65625 17 12 17 C 10.34375 17 9 15.65625 9 14 L 9 10 M 8.800781 22 L 15.199219 22 C 16.878906 22 17.71875 22 18.363281 21.671875 C 18.925781 21.386719 19.386719 20.925781 19.671875 20.363281 C 20 19.71875 20 18.878906 20 17.199219 L 20 6.800781 C 20 5.121094 20 4.28125 19.671875 3.636719 C 19.386719 3.074219 18.925781 2.613281 18.363281 2.328125 C 17.71875 2 16.878906 2 15.199219 2 L 8.800781 2 C 7.121094 2 6.28125 2 5.636719 2.328125 C 5.074219 2.613281 4.613281 3.074219 4.328125 3.636719 C 4 4.28125 4 5.121094 4 6.800781 L 4 17.199219 C 4 18.878906 4 19.71875 4.328125 20.363281 C 4.613281 20.925781 5.074219 21.386719 5.636719 21.671875 C 6.28125 22 7.121094 22 8.800781 22 Z M 8.800781 22 "/>
</g>
</svg>
